<?xml version="1.0" encoding="UTF-8"?>
<!DOCTYPE svg PUBLIC "-//W3C//DTD SVG 1.1//EN" "http://www.w3.org/Graphics/SVG/1.1/DTD/svg11.dtd">
<!-- Creator: CorelDRAW 2019 (64-Bit) -->
<svg xmlns="http://www.w3.org/2000/svg" xml:space="preserve" width="1772px" height="2067px" version="1.1" style="shape-rendering:geometricPrecision; text-rendering:geometricPrecision; image-rendering:optimizeQuality; fill-rule:evenodd; clip-rule:evenodd"
viewBox="0 0 1772 2067.33"
 xmlns:xlink="http://www.w3.org/1999/xlink">
 <defs>
  <style type="text/css">
   <![CDATA[
    .fil0 {fill:white}
    .fil1 {fill:#002D69;fill-rule:nonzero}
   ]]>
  </style>
 </defs>
 <g id="Warstwa_x0020_1">
  <metadata id="CorelCorpID_0Corel-Layer"/>
  <g id="_2266147722080">
   <rect class="fil0" width="1772" height="2067.33"/>
   <path class="fil1" d="M868.17 341.65l-7.56 -0.94c-8.13,-1.1 -22.07,4.85 -22.75,5.13l-4.42 1.95 4.1 2.71c7.82,5.15 15.07,6.86 21.3,4.97 7.93,-2.41 11.19,-9.83 11.34,-10.14l1.35 -3.21 -3.36 -0.47zm-125.24 1430.35l0.26 0 2.72 -3.42 -1.91 -6.27c1.9,-33.47 48.92,-109.86 48.92,-109.86 0,0 98.64,2.91 114.43,0.77l27.61 100.38c-13.09,9.65 -15.62,16.63 -13.13,18.38 22.02,-10.89 65.41,-15.63 89.56,-11.07 2.33,0.41 48.61,12.31 52.63,10.62 -3.75,-4.17 -10.99,-9.66 -11.79,-15.26 -0.85,-5.39 -0.59,-10.11 -0.59,-10.11 -5.64,-82.58 33.47,-383.56 33.47,-387.25 4.49,-33.47 13.58,-3.48 13.58,-3.48 0,0 79.22,382.02 84.42,408.06l0.18 1.14 1.94 6.07 16.87 0.02 2.03 -7.23c16.53,-58.36 112.7,-393.95 112.7,-395.13 7.96,-25.05 15.93,-4.68 15.93,-4.68 12.66,14.38 21.83,386.53 21.27,387.26 -21.13,12.27 -17.3,21.04 -16.99,21.04 46.69,-23.63 135.6,-0.43 136.95,-1.45l-37.69 -35.02 0 0c-9.16,-34.94 -39.84,-516.31 -39.26,-529.76 -2.17,-9.87 21.66,-24.56 23.1,-24.56 -47.29,8.81 -89.78,4.45 -110.82,0.44 -12.23,-2.8 12.51,10.02 10.3,19.58 -5.58,56.2 -101.08,345.4 -100.28,344.43 -21.25,-19.99 -65.92,-330.02 -66.08,-334.32 -1.63,-13.83 22.36,-24.62 18.34,-30.11 -50.51,22.77 -122.43,0.02 -122.43,0.02 -8.03,3.68 16.04,13.14 15.36,33.98 -0.66,21.08 -38.51,449.43 -45.18,487.09 -2.11,12.25 -4.11,25.46 -8.55,37.18l-4.18 -6.23c-43.81,-82.86 -68.5,-279.24 -66.85,-287.18 1.31,-7.94 17.59,-12.64 17.59,-12.64l-99.56 -0.79c-1.48,24.68 -124.28,285.15 -152.78,310.18l-0.11 -0.1c0,0 3.23,-500.34 3.16,-526.39 -0.35,-20.6 25.94,-35.12 25.94,-35.12l-3.8 0.57c-14.76,4.33 -33.21,6.51 -53.4,6.51 -19.98,0 -38.2,-2.57 -52.87,-7.08 -6.24,-1.24 -7.44,0.63 -7.44,1.09l7.04 9.16c34.61,31.73 -3.36,229.13 -5.76,233.45 -161.62,475.55 -225.98,195.73 -225.98,195.73 -17.42,-77.42 23.08,-392.79 24.25,-393.47 10.84,-21.48 44.41,-41.71 43.65,-44.21l-0.94 -1.04c-62.91,29.12 -162.15,-1.2 -162.89,-0.65l-0.24 0.06 0 0.63c-4.11,2.22 36.23,20.41 37.56,36.89 -0.22,8.14 -22.7,366.12 -22.7,364.78 -5.36,186.07 104.19,188.35 104.19,188.35 145.07,-2.38 209.64,-276.34 210.93,-283.34 1.58,-7.16 9.38,-4.11 9.38,-4.11l1.48 253.85 -5.09 13.56 -11.65 20.04c37.75,-12.64 76.05,-9.97 114.18,-1.77 4.71,1.05 7.91,1.67 9.02,1.79zm662.54 -932.31l0 0c-22.24,1.24 -79.57,-11.39 -130.52,-155.93 -2.7,-7.51 -6.73,-11.38 -10.99,-10.63 -5.47,0.96 -8.48,8.79 -8.48,22.08l0 0.31c0.01,45.15 5.7,197.02 77.57,256.15 24.54,20.23 54.71,27.17 89.37,21.2 -11.11,39.18 -32.76,63.94 -58.24,66.46 -34.78,3.36 -72.68,-33.43 -106.59,-103.65 -8.2,-17.63 -19.29,-52.06 -31.01,-88.5 -25.15,-77.55 -42.56,-128.77 -55.98,-134.06 -5.24,-2.04 -8.79,-0.61 -10.8,1.02 -5.82,4.64 -12.3,18.94 -2.27,89.39 8.45,48.33 26.42,76.45 42.05,88.34 -20.91,4.35 -56.7,3.45 -101.57,-139.5 -4.98,-15.36 -10.47,-22.89 -16.61,-22.42 -7.65,0.65 -10.97,13.21 -12.48,23.56 -3.18,21.12 7.66,62.84 16.47,83.47 -30.2,-25.78 -83.46,-95.43 -63.86,-155.67 12.35,21.88 19.86,29.69 20.13,30.02l1.54 1.59 1.88 -1.35 26.72 -20.08 37.75 20.25 2.48 1.38 1.13 -2.65 12.53 -29.16 37.83 14.76 2.4 1.01 0.92 -2.64 8.19 -24.97 32.83 16.75 3.09 1.57 0.63 -3.3 8.43 -37.55 40.2 17.42 3.63 1.61 0 -4.01 -0.02 -45.4 39.76 -0.02 2.61 0 0 -2.68 -0.03 -26.88 32.34 -3.54 2.4 -0.27 -0.12 -2.4 -1.42 -64.77c-0.07,-1.26 -1.1,-10.38 -6.74,-13.72 -1.79,-1.05 -4.66,-2.01 -8.73,-0.4 -6.84,2.91 -14.37,8.67 -15.08,16.21 -0.63,5.3 2.67,10.18 8.71,14.76l0 26.19c-0.83,1.28 -6.77,8.4 -31.42,0.44l-3.44 -1.14 0 3.61c0,28.28 -5.31,31.48 -32.42,35.06l-1.66 0.22 -0.55 1.57c-4.01,12.29 -7.33,21.18 -13.86,23.81 -5.8,2.38 -14.91,0.06 -28.58,-7.25l-3.21 -1.67 -0.62 3.5c-0.52,3.1 -1.02,5.97 -1.45,8.79 -1.52,10.4 -2.78,18.65 -7.56,20.88 -4.3,2.18 -12.47,-0.26 -24.88,-7.32l-2.78 -1.61 -1.06 3.13c-0.72,2.3 -1.37,4.68 -2.1,6.96 -3.11,10.81 -6.17,20.96 -11.6,22.39 -4.61,1.2 -12.05,-3.22 -21.94,-13.01l-2.22 -2.13 -1.83 2.46c-11.76,16.64 -22.46,24.72 -31.62,24.15 -6.91,-0.42 -13.35,-5.88 -19.04,-16.36l-1.64 -3.09 -2.51 2.46c-10.34,10.36 -17.52,14.59 -23.38,13.86 -5.33,-0.71 -10.44,-5.54 -16.4,-15.67l-0.21 -0.3 -0.18 -0.25c-2.7,-2.56 -6.42,-4.92 -9.83,-6.88 -1.12,-0.65 -2.36,-1.44 -3.37,-2.09 1.76,-0.18 4.64,-0.37 9.42,-0.37l0.98 -0.02c30.01,-0.02 109.66,-0.04 165.72,-37.83 61.24,-41.1 124.25,-88.82 99.42,-134.89 0.14,-6.66 2.97,-9.79 9.74,-16.67 4.95,-5 7.29,-17.33 7.29,-26.55 0,-5.5 -0.71,-12.72 -4.24,-16.24l-1.92 -1.91 -1.75 1.91c-3.73,3.68 -5.58,7.81 -7.25,11.84 -2.85,6.51 -5.9,12.72 -16.97,17.97 -3.42,-6.88 -6.02,-12.68 -7.98,-17.36 -5.45,-12.25 -8.16,-18.51 -16.72,-18.51l-2.71 0.04 0 2.68c0,3.91 1.42,8.55 2.91,13.51 2.09,7.47 4.52,15.94 1.97,22.37 -12.37,4.82 -26.47,22.52 -26.47,34.04l0 3.48 3.34 -0.91c4.08,-1.23 7.57,-2.71 10.42,-3.91 2.23,-0.92 5.25,-2.28 6.06,-2 0.14,0.04 0.79,0.84 0.79,5.29 0,2.98 -0.24,5.78 -0.41,8.47 -0.71,9.65 -1.22,17.97 8.35,27.55l3.24 3.22 1.09 -4.4c5.86,-22.12 15.93,-33.21 18.46,-33.17 0.16,0.15 0.63,0.86 0.63,3.87 0,16.1 -4.3,37.77 -38.12,62.59 -23.03,16.83 -82.45,57.18 -138.06,66.59 0.06,0 -10.98,1.87 -10.98,1.87 -40.24,7.06 -65.06,10.99 -82.4,-14.21 29.49,-1.69 186.87,-13.51 229.61,-74.41l1.08 -1.59 -1.14 -1.51c-10.21,-13.33 -34.04,-55.41 -22.62,-90.08 6.61,-19.9 24.01,-33.9 51.72,-41.7 26.47,-6.16 48.03,5.21 61.35,15.86 24.83,19.8 42.15,53.09 42.17,81.13 0.55,26.9 5.04,116.21 42.08,137.17 11.34,6.43 24.99,5.52 40.05,-1.97 -2.75,13.75 -11.66,32.98 -28.96,38.39 -18.11,5.72 -40.72,-6.39 -65.2,-35.04 -2.79,-2.82 -6.78,-6.06 -10.81,-4.43 -3.98,1.63 -5.77,7.73 -5.77,20.14 0,1.14 2.3,112.23 52.36,148.1 15.14,10.85 33.02,13.13 53.17,7.51 -5.46,14.55 -21.79,28.94 -43.63,30.22zm-188.57 50.3l0 0c0.05,0.13 -1.23,-1.97 -1.23,-1.97 -0.08,-0.1 -3.23,-4.64 -3.23,-4.64 0.14,0.14 -1.4,-2.24 -1.4,-2.24 0,-0.1 -2.61,-4.07 -2.61,-4.07l-1.5 -2.34c0.04,0.04 -2.12,-3.44 -2.12,-3.44 0,0.21 -1.21,-2.15 -1.21,-2.15 -0.05,-0.19 -2.15,-3.48 -2.15,-3.48l-1.26 -2.08c0.14,0.04 -1.77,-3.11 -1.77,-3.11 0.06,0.06 -1.02,-2.04 -1.02,-2.04 0.06,0.1 -1.45,-2.83 -1.45,-2.83 0.13,0.13 -0.83,-1.97 -0.83,-1.97 -0.19,-0.18 -1.59,-2.83 -1.59,-2.83 0.14,0.18 -0.65,-1.71 -0.65,-1.71l-1.24 -2.64c0,0.12 -0.71,-1.63 -0.71,-1.63 -0.04,-0.14 -0.93,-2.16 -1.06,-2.36l-0.44 -1.45 0 -0.14 -0.08 -0.2 -0.94 -2.02 -0.29 -1.01 0 -0.25 -0.05 -0.18 -0.79 -2.28c0,0 -0.22,-0.71 -0.28,-0.96l-0.59 -2.15 0 -0.17 -0.03 -0.08 -0.46 -1.02 -0.34 -1.77c0,0.06 -0.22,-0.79 -0.22,-1.03l-0.19 -1.55 0 -0.22 -0.07 -0.23 -0.18 -0.89c0,0.12 -0.38,-1.39 -0.38,-1.59l0 -0.65c0,0.08 -0.12,-1.49 -0.12,-1.49 0,0.14 -0.01,-0.67 -0.01,-0.67l0 -1.4 0 -0.61c0,0.18 0.13,-1.37 0.13,-1.37 0,0.06 0,-0.06 -0.01,-0.14l0.5 -1.18c0,-0.18 0.07,-0.49 0.07,-0.49 0.05,-0.14 0.11,-0.61 0.25,-1.02l0 -0.24 0.41 -1.1 0.6 -0.89 0.29 -0.59c0.18,-0.15 0.18,-0.39 0.38,-0.53l0 -0.1 0.29 -0.27 0.12 -0.22 0.28 -0.19 0.2 -0.16 0.61 -0.47 0.52 -0.36 0 -0.06c0.16,0 0.57,-0.25 0.57,-0.25l0.41 -0.16c0.1,-0.04 0.27,-0.08 0.27,-0.08l-0.01 0.04c4.43,4.23 18.64,45.88 31.04,87.46l-4.43 -6.09zm-142.54 84.8l0 0 1.79 1.79 1.79 -1.79 1.57 -1.61c17.59,-17.44 39.38,-39.11 57.87,-35.02 9.78,2.18 18.12,11.94 24.73,28.45 -15.9,0.65 -46.27,4.94 -46.25,20.55 0,3.87 1.09,6.75 3.21,8.75 4.17,3.72 10.94,3.03 18.07,2.16 2.88,-0.29 5.82,-0.63 8.55,-0.63 11.91,0 47.94,-0.02 47.94,27.36 0.02,27.13 -12.37,32.97 -20.13,34.07 0.78,-7.53 -0.71,-17.24 -7.91,-25.46 -7.09,-8.26 -22.26,-17.54 -54.19,-14.85l-3.89 0.28 1.77 3.46c1.08,2.22 2.61,4.93 4.32,8.16 0.77,1.49 1.76,3.28 2.74,4.93l-0.46 0.12 0.57 0.24c10.51,19.7 26.95,53.05 16.79,68.98 -4.52,6.82 -14.04,9.81 -28.04,9.37 8.61,-29.8 -3.23,-50 -15.12,-61.74 -12.19,-12.13 -27.98,-25.78 -42.9,-24.54 -6.68,0.63 -12.32,4.21 -16.93,10.72 -4.07,6.67 -3.98,13.25 0,18.72 4.6,6.39 13.87,10.11 23.43,10.05 -5.44,6.03 -11.91,10.48 -19.32,11.34 -10.51,1.1 -21.2,-3.54 -31.17,-13.47 -6.52,-6.45 -8.69,-17.14 -5.85,-27.86 5.21,-19.05 24.53,-34.17 53.13,-41.39l1.96 -0.53 0 -2.08c-0.01,-23.99 -9.59,-43.68 -31.9,-65.74l-1.79 -1.92 -1.87 1.88 -1.18 1.16c-4.03,4.05 -8.23,8.22 -13.13,7.22 -8.56,-1.71 -19.12,-17.64 -31.39,-47.39l-0.12 -0.51 -0.33 -0.24c-3.79,-6.94 17.16,-80.02 21.08,-85.27l0.53 -0.49c-0.05,0.07 0.11,-0.61 0.11,-0.61 1.06,-4.11 4.07,-10.25 6.92,-10.5 0.91,-0.06 4.24,0.43 9.37,10.93 2.15,4.4 4.5,8.87 6.95,13.66 12.9,24.62 27.46,52.58 23.1,80.21 -5.75,28.65 31.88,75.56 35.56,79.08l0.02 0zm62.97 65.91l0 0c3.62,0.93 6.65,2.58 9.08,5 3.83,3.75 5.61,8.73 6.57,13.23 -3.67,-7.27 -8.79,-13.39 -15.65,-18.23zm-174.94 -293.33l0 0 -3.23 -2.06 -0.75 3.73c-2.57,11.66 -10.5,41.61 -18.23,52.94 -3.51,-5.9 -7.13,-12.71 -10.65,-19.53 -6.72,-13.15 -13.12,-25.56 -19.47,-31.79l-3.2 -3.15 -1.14 4.27c-3.8,13.45 -5.99,23.77 -7.7,32.05 -2.32,10.77 -3.8,17.3 -6.85,21.72 -16.46,-17.71 -28.84,-49.07 -29.03,-49.37l-2.78 -7.31 -2.11 7.57 -12.48 44.38c-5.5,-4.39 -17.89,-16.54 -18.6,-37.85l-0.28 -9.86 -4.65 8.77 -16.35 31.23c-6.56,-8.12 -25.01,-37.6 -14.72,-97.53 12.78,22.26 29.61,39.62 30.39,40.39l3.45 3.4 0.98 -4.74 7.39 -35.65c9.04,13.37 20.27,31.78 20.27,37.09l0 6.31 4.56 -4.45c11.99,-12.09 23.22,-29.82 26.44,-40.44 8.43,8.91 19.63,24.71 21.93,40.41l5.25 -0.46 -0.29 1.08c0.25,-0.41 1.53,-2.61 2.95,-4.95 10.17,-16.62 19.77,-32.8 23.85,-42.79 9.08,21.65 16.52,48.51 16.6,48.83l0.87 3.3 2.95 -1.75c0.99,-0.67 21.38,-13.16 33.79,-35.37 -0.64,40.3 -5.4,52.95 -19.38,67.83 -1.51,-19.72 -9.43,-26.03 -9.78,-26.25zm-14.22 103.25l0 0 -7.58 -7.21 -1.83 -1.79 -1.86 1.82c-0.41,0.42 -8.87,9.82 -18.53,44.72 -10.08,-12.65 -24.96,-44.54 -25.16,-44.91l-1.44 -3.07c0.64,-1.08 1.3,-2.4 1.3,-2.4l20.35 -36.67c6.53,15.24 13.28,33.23 13.32,33.47l1.69 4.32 2.85 -3.65c8.42,-10.6 21.31,-24.41 28.31,-27.96 -0.82,23.43 -8.25,38.3 -11.42,43.33zm-25.12 70.14l0 0c-4.34,4.17 -10.54,1.49 -10.88,1.36l-3.6 -1.6c-0.04,0 -0.04,4.04 -0.04,4.04 0,0.11 -0.33,13.19 -9,29.06 -8.21,-3.21 -11.69,-10.13 -16.47,-20.45 -1.19,-2.6 -2.41,-5.29 -3.91,-8.2l-3.06 -6.08 -1.77 6.51c-5.26,18.88 5.83,39.78 26.62,49.71 3.19,1.57 4.7,3.62 4.58,6.33 -0.25,6.82 -10.25,16.38 -18.31,19.72 -3.01,1.2 -4.93,1.2 -5.63,0.71 -59.68,-141.28 -58.2,-170.99 -54.1,-188.31 13.71,7.13 24.58,24.05 24.74,24.26l3.22 5.35 1.52 -6.06c0.04,-0.23 3.97,-15.71 9.78,-30.16 7.78,9.14 21.69,30.64 21.93,30.93l1.33 1.99 -1.54 3.36 -16.2 36.53c-4.39,-4.21 -13.69,-13.8 -22.97,-27.57l-4.74 2.03c7.58,35.26 17.57,46.9 28.93,57.53l4.42 4.11 0 -5.97c0.13,-2.82 8.73,-22.05 15.44,-31.46 3.46,13.23 16.85,27.5 18.68,29.23 2.01,2.09 4.27,3.9 6.22,5.49 2.67,2.22 5.65,4.72 5.76,6.1 0,0.57 -0.59,1.22 -0.95,1.51zm-4.35 125.82l0 0c1.87,5.37 1.58,9.93 -1.17,13.92 -7.47,10.78 -29.81,14.42 -35.23,14.42 -5.51,0 -43.94,-4.8 -43.95,-24.25 0,-16.18 31.85,-21.12 44.08,-21.59 19.18,-0.04 34.89,16.11 36.27,17.5zm21.19 138.82l0 0c15.75,13.71 35.73,19.59 59.35,17.95 -6.16,11.55 -17.91,18.98 -32.06,19.49 -23.26,0.67 -44.82,-15.73 -57.59,-43.93l-3.73 -8.08 -1.24 8.73c-3.38,22.65 28.33,74.43 79,101.91 -4.95,5 -12.18,8.48 -21.18,8.73 -17.99,0.63 -37.49,-9.1 -52.22,-26.09l-2.59 -3.01 -1.7 3.62c-2.93,6.12 0.91,13.21 5.05,20.73 3.23,5.84 6.48,11.89 6.48,17.4 0,3.85 -0.84,37.53 -30.03,55.98 -29.21,-18.43 -30.22,-52.09 -30.22,-55.96 0,-5.55 3.22,-11.55 6.45,-17.4 4.05,-7.54 7.84,-14.61 4.96,-20.73l-1.68 -3.64 -2.59 3.03c-14.63,16.89 -33.98,26.66 -51.91,26.21 -9.06,-0.31 -16.33,-3.68 -21.35,-8.79 50.35,-27.45 82.18,-79.16 79.07,-101.79l-1.27 -8.97 -3.79 8.16c-12.79,28.2 -34.42,44.66 -57.61,43.95 -14.14,-0.55 -25.69,-7.87 -31.76,-19.27 22.92,2.67 42.58,-2.36 58.09,-15.4 33.8,-28.29 38.1,-83.05 38.59,-94.69l29.85 -0.02c0.55,11.4 4.92,63.17 37.63,91.88zm-132.24 -297.6l0 0 -0.29 0.24 -0.21 0.49c-12.23,29.75 -22.7,45.7 -31.27,47.41 -5.04,0.96 -9.15,-3.19 -13.22,-7.2l-1.07 -1.12 -1.9 -1.92 -1.86 1.92c-22.29,22.1 -31.79,41.79 -31.78,65.79l0 2.05 2.04 0.53c28.45,7.16 47.79,22.28 52.97,41.31 2.93,10.8 0.71,21.45 -5.75,27.9 -9.91,9.97 -20.66,14.57 -31.18,13.43 -7.39,-0.76 -13.83,-5.19 -19.26,-11.26 9.52,0.07 18.76,-3.68 23.43,-10.07 3.96,-5.43 3.99,-12.07 0.14,-18.6 -4.75,-6.65 -10.38,-10.21 -17.07,-10.84 -15.13,-1.28 -31.79,13.41 -43,24.56 -11.85,11.78 -23.67,32.01 -15.1,61.76 -14.04,0.5 -23.51,-2.53 -27.98,-9.41 -11.24,-17.41 9.69,-56.14 19.69,-74.57 1.71,-3.08 3.06,-5.68 4.14,-7.82l1.73 -3.42 -3.87 -0.28c-31.79,-2.65 -46.97,6.63 -54.05,14.87 -7.14,8.2 -8.77,17.95 -7.93,25.5 -7.74,-1.08 -20.2,-6.92 -20.21,-34.04 -0.01,-27.41 36.08,-27.41 47.86,-27.43 2.73,0 5.79,0.36 8.68,0.63 7.13,0.83 13.85,1.5 17.94,-2.18 2.16,-1.97 3.31,-4.86 3.31,-8.73 -0.01,-15.63 -30.44,-19.9 -46.21,-20.53 6.6,-16.52 14.77,-26.23 24.47,-28.45 18.37,-4.15 40.24,17.46 57.77,34.74l1.87 1.83 1.76 1.79 1.89 -1.79c4.15,-4.13 41.07,-50.93 35.47,-79.16 -4.35,-27.53 10.17,-55.49 22.99,-80.17 2.58,-4.76 4.86,-9.26 7.03,-13.6 5.12,-10.56 8.45,-11.03 9.4,-10.97 2.78,0.25 5.7,6.39 6.87,10.44l0.16 0.7 0.56 0.53c3.87,5.1 24.83,77.97 21.04,85.14zm-185.17 172.72l0 0c0.87,-4.83 2.76,-10.48 6.81,-14.59 2.51,-2.59 5.9,-4.18 9.61,-5.11 -7.3,5.19 -12.73,11.8 -16.42,19.7zm-69.3 -163.89l0 0c12.37,-41.6 26.48,-83.31 31.12,-87.75 1.07,0.23 2.83,0.96 4.16,3.58 3.12,5.99 5.79,26.25 -35.28,84.17zm136.67 -59.42l0 0c8.79,-20.62 19.66,-62.37 16.56,-83.49 -1.54,-10.42 -4.96,-22.9 -12.62,-23.57 -6.1,-0.49 -11.66,7.04 -16.69,22.45 -44.62,142.87 -80.51,143.91 -101.32,139.57 15.67,-11.82 33.56,-39.98 41.83,-88.27 10.07,-70.7 3.52,-84.92 -2.24,-89.48 -2.06,-1.63 -5.55,-3.09 -10.79,-1.02 -13.39,5.29 -30.91,56.74 -55.99,134.55 -11.65,36.26 -22.68,70.45 -30.82,88.13 -33.89,70.15 -71.69,107.02 -106.48,103.64 -25.57,-2.52 -47.17,-27.31 -58.37,-66.42 34.71,5.92 64.82,-1.02 89.4,-21.26 71.78,-59.16 77.33,-211.04 77.31,-256.18l0 -0.36c0,-13.27 -2.98,-21.11 -8.37,-22.06 -4.33,-0.75 -8.33,3.11 -11.07,10.6 -50.65,144.5 -108.01,157.22 -130.32,156.06 -21.82,-1.24 -38.24,-15.65 -44,-30.18 20.24,5.62 38.24,3.28 53.37,-7.55 49.95,-35.89 52.26,-147 52.26,-148.14 -0.01,-12.41 -1.81,-18.52 -5.9,-20.15 -3.9,-1.67 -7.91,1.61 -10.54,4.26 -24.61,28.87 -47.17,40.94 -65.3,35.28 -17.31,-5.45 -26.19,-24.68 -28.89,-38.38 15.03,7.47 28.48,8.39 39.91,1.94 36.96,-20.82 41.5,-110.25 42.03,-137.2 0,-28.02 17.29,-61.37 42.03,-81.11 13.45,-10.7 34.95,-22.1 61.54,-15.87 27.6,7.69 44.96,21.75 51.67,41.66 11.48,34.75 -12.26,76.73 -22.5,90.02l-1.18 1.52 1.06 1.57c42.72,60.91 200.08,72.57 229.63,74.28 -17.21,25.19 -42.12,21.24 -82.25,14.24l-11.09 -1.87c-55.65,-9.38 -115.11,-49.61 -138.14,-66.48 -33.75,-24.79 -38.11,-46.46 -38.11,-62.55 0,-2.93 0.58,-3.73 0.61,-3.83 2.59,0.02 12.5,11.11 18.33,33.13l1.21 4.37 3.19 -3.19c9.7,-9.55 9.05,-17.85 8.36,-27.43 -0.23,-2.79 -0.4,-5.58 -0.4,-8.59 -0.01,-4.46 0.52,-5.27 0.65,-5.35 0.83,-0.25 3.94,1.08 6.23,2.03 2.85,1.2 6.34,2.69 10.54,3.89l3.29 0.92 -0.02 -3.48c0,-11.52 -14.16,-29.16 -26.7,-34.01 -2.4,-6.45 -0.08,-14.91 2.12,-22.36 1.43,-4.95 2.73,-9.65 2.73,-13.55l0 -2.69 -2.59 -0.04c-8.55,0 -11.27,6.19 -16.64,18.42 -1.98,4.68 -4.58,10.54 -8.09,17.43 -10.93,-5.22 -13.94,-11.39 -16.83,-17.88 -1.73,-4.07 -3.54,-8.22 -7.25,-11.99l-1.86 -1.79 -1.87 1.87c-3.74,3.73 -4.21,11.91 -4.21,16.43 0.01,9.23 2.34,21.44 7.4,26.37 6.42,6.45 9.6,9.79 9.73,16.7 -26.65,49.9 52.06,102.99 99.44,134.8 55.97,37.72 135.76,37.68 165.86,37.68l0.92 -0.02c4.7,0 7.65,0.19 9.41,0.37 -1.12,0.65 -2.39,1.48 -3.41,2.09 -3.33,1.98 -7.18,4.3 -9.85,6.88l-0.22 0.27 -0.15 0.28c-6.04,10.14 -10.97,14.96 -16.31,15.69 -5.82,0.71 -13.09,-3.48 -23.49,-13.84l-2.42 -2.48 -1.71 3.11c-5.72,10.46 -12.14,15.96 -19.09,16.45 -9.17,0.51 -19.89,-7.55 -31.71,-24.2l-1.82 -2.46 -2.14 2.16c-9.93,9.78 -17.22,14.2 -21.88,13.06 -5.47,-1.38 -8.5,-11.48 -11.65,-22.16 -0.72,-2.38 -1.49,-4.78 -2.3,-7.22l-0.92 -3.12 -2.85 1.63c-12.37,7.08 -20.49,9.48 -24.82,7.29 -4.68,-2.22 -5.97,-10.48 -7.57,-20.9 -0.36,-2.79 -0.82,-5.68 -1.43,-8.73l-0.63 -3.5 -3.21 1.67c-13.69,7.3 -22.71,9.66 -28.48,7.26 -6.53,-2.66 -9.88,-11.52 -13.88,-23.79l-0.53 -1.58 -1.64 -0.23c-27.08,-3.54 -32.44,-6.75 -32.45,-35.02l0 -3.62 -3.44 1.14c-24.37,7.91 -30.41,1.08 -31.39,-0.41l-0.01 -26.17c6.01,-4.6 9.22,-9.56 8.69,-14.79 -0.8,-7.55 -8.39,-13.29 -15.18,-16.16 -4.03,-1.65 -6.96,-0.67 -8.64,0.41 -5.63,3.32 -6.63,12.45 -6.75,13.49 0,0.24 -1.46,64.98 -1.46,64.98l0 2.4 2.38 0.24 32.43 3.54 0.01 26.88 0 2.69 2.65 0.04 39.68 -0.02 0.02 45.44 0 4.03 3.62 -1.63 40.16 -17.44 8.41 37.48 0.65 3.36 3.11 -1.55 32.86 -16.78 8.07 24.94 0.95 2.67 2.5 -1.02 37.62 -14.79 12.72 29.16 1.12 2.64 2.52 -1.38 37.8 -20.29 26.64 20.09 1.75 1.3 1.58 -1.55c0.3,-0.36 7.74,-8.18 20.14,-30.05 19.59,60.19 -33.71,129.9 -63.83,155.73zm130.44 -220.87l0 0c6.91,16.67 13.26,37.2 13.38,37.48l2.95 9.4 2.17 -9.62c0.06,-0.39 8.32,-36.2 18.56,-49.29 11.52,13.33 30.58,49.53 30.75,49.9l4.88 -1.34c0,-0.25 -0.6,-26.38 14.17,-43.18 3.54,3.82 6.98,8.36 10.53,13.06 8.79,11.82 17.91,24.07 28.13,24.07l2.62 0.02 0 -2.66c0,-22.08 4.24,-32.54 6.5,-36.67l26.64 26.31c3.56,5.29 -4.79,56.14 -17.75,73.72 -14.45,-29.24 -27.42,-47.84 -32.79,-53.11l-1.86 -1.83 -1.83 1.83c-2.47,2.53 -3.87,8.02 -5.56,15.71 -2.48,10.93 -6.13,25.38 -14.37,32.95 -7.84,-8.67 -12.44,-17.79 -16.22,-25.95 -3.45,-7.26 -6.42,-13.53 -11.08,-18.25l-2.51 -2.4 -1.67 3.09c-4.95,9.12 -7.29,17.93 -9.38,25.8 -1.79,6.76 -3.65,12.25 -6.41,16.26l-28.76 -28.49 -6.73 -6.59 -4.5 -4.43 0 6.3c0,21.23 -1.84,30.61 -3.06,34.66 -6.11,-6.13 -21.89,-24.07 -29.8,-52.24 5.64,-4.09 24.39,-18.6 33,-34.51zm-14.24 -33.37l0 0 0 0.67c0.04,9.12 0.09,16.26 -3.18,19.53 -1.08,1.02 -3.21,1.2 -5.04,1.53 0.5,-12.19 3.46,-17.97 5.94,-20.45 0.94,-0.71 1.6,-0.94 2.28,-1.28zm28.58 -58.42l0 0c17.54,-26.11 40.65,-78.76 -1.55,-137.75l-0.15 -0.18 -0.14 -0.16c-8.78,-8.73 -14.78,-11.26 -17.71,-12.05l-2.79 -11.58 -0.5 -2.01 -2.04 0c-4.42,0.02 -22.53,4.9 -32.15,9.46 -0.76,-3.81 -1.47,-10.74 2.78,-15.83 5.37,-6.49 17.44,-8.41 34.87,-5.52l0.25 0 0.14 0c6.11,0 7.59,-5.43 9.12,-10.7 1.16,-3.99 2.59,-9.06 6.03,-13.74 10.85,-14.59 25.05,-14.67 43.19,-10.33 15.68,3.96 44.28,15.36 59.07,28.42 21.72,19.17 25.42,43.55 25.77,63.6 -8.47,-3.69 -15.25,-4.97 -19.97,-2.71 -4.12,1.95 -6.73,6.02 -8.12,12.51 -8.11,39.11 -1.65,80.16 18.32,115.48 19.22,32.72 24.67,56.51 26.14,69.9 -3.97,-5.19 -7.45,-10.84 -10.48,-16.13 -5.6,-9.69 -9.55,-16.67 -14.97,-16.67l-1.69 0.02 -0.7 1.41c-6.56,12.27 -13.48,26.1 -11.94,40.14 -14.1,-5.71 -27.01,-14.85 -27.73,-43.52l-5.09 -0.8 -4.01 11.07c-5.81,15.98 -11.5,31.65 -15.12,38.59 -14.55,-29.53 -22.88,-38.02 -27.84,-43.06l-2.5 -2.42c-0.07,-0.13 -1.77,3.01 -1.77,3.01 -3.96,7.36 -7.57,13.1 -10.75,18.25 -4.18,6.59 -6.7,11.62 -8.26,16.44 -8.67,-13.92 -11.55,-18.01 -12.21,-18.7 -0.37,-0.83 -12.48,-25.21 14.5,-64.44zm581.7 260.95l0 0c-20.87,-12.57 -33.83,-46.6 -34.4,-89.15 38.25,3.14 65.42,-3.46 80.42,-20.14 19.17,-21.45 15.18,-54.76 10.23,-77.94l-0.83 -4.74 -3.44 3.44c-15.96,15.85 -29.75,21.42 -41.23,16.68 -27.77,-11.66 -36.89,-82.02 -36.91,-105.06 -2.93,-58.75 -24.28,-102.52 -59.97,-123.07 -29.06,-16.91 -64.95,-16.79 -98.35,0.33 -20.56,10.64 -34.04,26.31 -40.01,46.68 -9.67,32.88 2.79,72.72 16.89,97.94 -71.83,57.89 -193.74,43.83 -211.82,41.37 -22.58,-40.4 -34.1,-83.84 -34.13,-129.06l0 -0.89c0,-5.31 1.46,-8.67 4.34,-10.2 8.26,-4.5 27.56,6.15 34.3,10.66l3.28 -4.12c-0.27,-0.21 -16.81,-16.26 -41.7,-84.37 -15.19,-33.84 -60,-48.6 -78.44,-53.42 -35.57,-12.13 -58.1,-2.87 -73.06,30.06 -1.13,2.66 -9.83,3.21 -16.87,3.68 -10.31,0.63 -22.08,1.4 -27.92,7.55 -15.2,16.34 -2.34,54.15 -1.75,55.74l1.09 3.15 2.74 -1.79c0.34,-0.12 27.97,-17.34 48.39,-6.51 14.11,7.42 21.85,26.39 22.94,56.34 0.02,24.14 -20.6,64.53 -63.06,123.36 -18,2.48 -139.4,16.81 -211.33,-41.27 13.88,-25.23 26.22,-65.16 16.56,-98.06 -5.94,-20.29 -19.43,-35.94 -40.06,-46.54 -31.4,-16.14 -68.25,-14.63 -98.65,4.05 -40.58,24.89 -63.8,76.41 -63.77,141.45 0.01,19.96 -11.04,76.69 -35.97,85.87 -11.84,4.38 -25.78,-2.73 -41.27,-21.12l-3.57 -4.15 -1.05 5.31c-5.45,26.76 -0.59,63.61 22.53,85.44 12.19,11.66 34.68,23.2 72.07,14.33 -0.66,42.28 -13.59,76.19 -34.32,88.64 -13.82,8.34 -30.57,7.24 -50.04,-3.09l-4.65 -2.49 0.82 5.23c6.05,38.77 20.98,63.43 43.3,71.31 30.28,10.66 73.63,-9.26 128.78,-58.47 -14.14,62.94 -30.72,132.68 -72.01,154.02 -19.04,9.79 -41.68,8.94 -69.24,-2.64l-4.22 -1.81 0.66 4.56c7.57,53.47 26.61,90.49 53.66,104.2 18.88,9.61 40.78,7.8 65.14,-5.33 64.37,-34.73 98.68,-141.38 100.17,-145.94 0.49,-1.95 1.15,-3.91 1.74,-5.86l0.86 0.89c10.36,10.32 25.23,14.98 40.92,12.88 20.7,-2.86 39.43,-16.7 51.47,-37.95 6.98,-14.69 12.19,-27.14 16.73,-38.15 3.88,-9.14 7.21,-16.83 10.72,-23.85 -2.21,17.91 -8.54,35.67 -18.59,50.22l0.25 -0.43c-3.35,3.3 -4,6.03 -2.13,7.98 5.8,5.92 45.36,-12.17 53.12,-19.66 1.62,-1.64 4.27,-1.81 6.63,-0.48 5.8,3.21 10.04,14.46 4.82,36.36 -8.44,34.73 -18.14,45.78 -28.47,56.45 -8.01,-7.53 -41.35,-36.45 -68.64,-26.33 -17.19,6.26 -27.41,26.94 -30.56,61.16 -19.46,19.8 -33.37,52.65 -23.19,74.32 5.11,10.8 18.34,22.91 52.27,19.78 -0.61,3.31 -1.35,6.51 -1.49,10.13l0 0.14 0.05 0.17c1.99,24.5 9.86,41.18 23.25,49.51 14.29,8.85 34.52,8.14 59.99,-2.12l2.81 -1.16 -1.52 -2.67c-6.82,-11.68 -21.15,-36.01 -14.95,-49.42 2.11,-4.54 6.67,-7.27 13.39,-8.73 1.29,1.36 2.57,2.76 4.05,4.55 8.81,10.34 21.93,25.95 41.97,21.45 32.43,-7.73 48.94,-21.77 48.92,-41.9 -0.01,-22.34 -5.68,-45.8 -45.16,-65.99 0.67,-16.26 10.44,-21.95 25.28,-30.09 14.55,-8 32.51,-17.83 47.14,-41.9 -0.04,0.08 1.44,-2.16 1.44,-2.16 0.65,-0.89 1.96,-2.54 3.44,-2.58 1.29,0 2.92,1.28 4.59,3.54 -0.05,-0.06 2.01,3.31 2.01,3.31 22.26,32.66 28.31,88.3 22.05,93.57 -1.15,0.94 -3.75,2.6 -6.78,4.52 -12.76,7.73 -36.27,22.05 -34.87,39.15 0.94,11.23 11.93,20.96 33.83,29.75l0.45 0.22c2.64,2.59 3.71,22.67 -6.46,47.76 -9.94,24.54 -31.66,55.49 -91.39,49.63l-3.84 -0.43 1.04 3.67c11.26,39.78 25.03,59.48 68.1,61.45 -21.92,17.32 -46.34,30.26 -46.61,30.4l-1.64 0.82 0.27 1.89c0,0.37 6.51,38.27 65.92,39.25 1.82,27.51 31.6,52.75 51.68,69.62l1.74 1.52 1.71 -1.52c20.08,-16.83 49.88,-42.02 51.54,-69.66 59.66,-1.02 66.01,-38.97 66.08,-39.31l0.3 -1.87 -1.71 -0.84c-0.25,-0.12 -24.6,-13.06 -46.52,-30.34 43.14,-1.99 56.9,-21.71 67.91,-61.52l0.95 -3.66 -3.8 0.43c-59.88,5.9 -87.01,-25.19 -96.92,-49.9 -10,-25.09 -3.43,-45.13 -0.81,-47.39l0.41 -0.2c21.81,-8.85 32.85,-18.56 33.78,-29.79 1.34,-17.16 -22.4,-31.48 -35.04,-39.21 -3.13,-1.84 -5.7,-3.46 -6.76,-4.4 -6.34,-5.29 -0.17,-61.07 21.87,-93.5 0.07,-0.09 1.95,-3.1 3.11,-4.87l7.83 0.78 0.81 1.11c14.33,24.18 32.45,33.64 46.92,41.13 15.29,8.02 25.43,13.63 25.96,31.54 -39.43,20.19 -45.13,43.67 -45.12,66.03 0,20.11 16.51,34.15 49.13,41.84 20,4.52 33.14,-11.09 41.84,-21.39 1.52,-1.89 2.79,-3.27 4.07,-4.64 6.74,1.45 11.21,4.2 13.34,8.73 6.21,13.45 -8.53,38.65 -14.82,49.45l-1.51 2.65 2.84 1.16c25.88,10.54 46.33,11.05 60.74,1.61 14.36,-9.43 22.06,-28.64 22.93,-57.12l0 -0.31 -0.09 -0.2c-0.12,-0.65 -0.41,-1.1 -0.58,-1.79 33.02,2.66 46.03,-9.24 51.04,-19.95 10.01,-21.63 -3.98,-54.49 -23.4,-74.19 -3.2,-34.25 -13.43,-54.94 -30.61,-61.15 -23.67,-8.64 -54.1,12.54 -68.55,26.4 -10.74,-10.97 -20.13,-21.72 -28.52,-56.45 -5.28,-21.9 -1.02,-33.07 4.71,-36.34 2.41,-1.35 5.07,-1.18 6.72,0.44 7.77,7.69 47.88,26.42 53.64,20.51 2.91,-3.05 -0.91,-7.02 -2.46,-8.54 -10.06,-14.43 -16.37,-32.11 -18.52,-50.06 3.25,6.94 6.62,14.33 10.32,23.22 4.65,11.09 9.9,23.77 17.06,38.6 12.02,21.35 30.74,35.14 51.45,38.03 15.79,2.1 30.75,-2.56 41.15,-12.92l0.74 -0.73c0.55,1.87 1.14,3.76 1.75,5.63 1.4,4.64 35.84,111.23 100.36,145.95 24.26,13.1 46.01,14.85 64.91,5.31 27.15,-13.78 46.18,-50.81 53.76,-104.27l0.62 -4.58 -4.25 1.83c-27.6,11.58 -50.27,12.44 -69.27,2.65 -41.31,-21.35 -57.86,-91.08 -72.1,-154 55.29,49.24 98.63,69.1 128.87,58.4 22.35,-7.9 37.24,-32.6 43.3,-71.36l0.66 -5.15 -4.51 2.46c-19.51,10.26 -36.44,11.31 -50.18,3.01zm-518.27 833.84l0 0 -1.41 0 -90.97 1.51 52.97 -120.49c0,0 2.87,-10.32 9.69,0l29.72 118.78 -0.08 0 0.08 0.2z"/>
  </g>
 </g>
</svg>
